<svg width="32" height="32" viewBox="0 0 32 32" fill="none" xmlns="http://www.w3.org/2000/svg">
<path d="M26 23.3333C26 24.2174 25.6488 25.0652 25.0237 25.6904C24.3986 26.3155 23.5507 26.6667 22.6667 26.6667C21.7826 26.6667 20.9348 26.3155 20.3096 25.6904C19.6845 25.0652 19.3333 24.2174 19.3333 23.3333C19.3333 22.4493 19.6845 21.6014 20.3096 20.9763C20.9348 20.3512 21.7826 20 22.6667 20C23.5507 20 24.3986 20.3512 25.0237 20.9763C25.6488 21.6014 26 22.4493 26 23.3333ZM12.6667 23.3333C12.6667 24.2174 12.3155 25.0652 11.6904 25.6904C11.0652 26.3155 10.2174 26.6667 9.33333 26.6667C8.44928 26.6667 7.60143 26.3155 6.97631 25.6904C6.35119 25.0652 6 24.2174 6 23.3333C6 22.4493 6.35119 21.6014 6.97631 20.9763C7.60143 20.3512 8.44928 20 9.33333 20C10.2174 20 11.0652 20.3512 11.6904 20.9763C12.3155 21.6014 12.6667 22.4493 12.6667 23.3333Z" stroke="#89D628" stroke-width="2" stroke-linecap="round" stroke-linejoin="round"/>
<path d="M19.3333 23.3335H12.6666M26 23.3335H27.0173C27.3106 23.3335 27.4573 23.3335 27.58 23.3175C28.0214 23.2625 28.4318 23.062 28.7465 22.7476C29.0611 22.4332 29.262 22.0229 29.3173 21.5815C29.3333 21.4575 29.3333 21.3108 29.3333 21.0175V17.3335C29.3333 15.035 28.4202 12.8306 26.7949 11.2052C25.1696 9.57992 22.9652 8.66683 20.6666 8.66683M2.66663 5.3335H16C17.8853 5.3335 18.828 5.3335 19.4133 5.92016C20 6.50416 20 7.44683 20 9.3335V20.6668M2.66663 17.0002V20.0002C2.66663 21.2468 2.66663 21.8695 2.93463 22.3335C3.11016 22.6375 3.36261 22.89 3.66663 23.0655C4.13063 23.3335 4.75329 23.3335 5.99996 23.3335M2.66663 9.3335H10.6666M2.66663 13.3335H7.99996" stroke="#89D628" stroke-width="2" stroke-linecap="round" stroke-linejoin="round"/>
</svg>
