<svg width="32" height="32" viewBox="0 0 32 32" fill="none" xmlns="http://www.w3.org/2000/svg">
<path d="M2.66663 22.6665H29.3333M16 9.33318C16 9.33318 18 7.95451 18 6.25451C18 3.24784 14 3.24784 14 6.25451C14 7.95451 16 9.33318 16 9.33318ZM16 9.33318C21.848 9.33318 26.6693 13.7025 27.3333 19.3332M16 9.33318C10.152 9.33318 5.33063 13.7025 4.66663 19.3332M3.99996 22.6665L4.82796 25.9798C4.97216 26.5568 5.30506 27.0689 5.77373 27.4349C6.24241 27.8009 6.81997 27.9998 7.41463 27.9998H24.584C25.1786 27.9998 25.7562 27.8009 26.2249 27.4349C26.6935 27.0689 27.0264 26.5568 27.1706 25.9798L28 22.6665" stroke="#89D628" stroke-width="2" stroke-linecap="round" stroke-linejoin="round"/>
</svg>
